PathFileType	4	(X/Y/Z)	C:\Users\dbl\Desktop\20210112\20210112\bx_n_0_901.trc
DataRate	CameraRate	NumFrames	NumMarkers	Units	OrigDataRate	OrigDataStartFrame	OrigNumFrames
50.00	50.00	       4	43	mm	50.00	278	       370
Frame#	Time	Top.Head			R.Acromium			L.Acromium			Sternum			R.ASIS			L.ASIS			V.Sacral			R.Thigh.Upper			R.Thigh.Front			R.Thigh.Rear			R.Knee.Lat			R.Knee.Med			R.Shank.Upper			R.Shank.Front			R.Shank.Rear			R.Ankle.Lat			R.Midfoot.Lat			R.Toe.Lat			R.Toe.Tip			R.Toe.Med			R.Ankle.Med			R.Midfoot.Sup			R.Heel			L.Thigh.Upper			L.Thigh.Front			L.Thigh.Rear			L.Knee.Lat			L.Knee.Med			L.Shank.Upper			L.Shank.Front			L.Shank.Rear			L.Ankle.Lat			L.Midfoot.Lat			L.Toe.Lat			L.Toe.Tip			L.Toe.Med			L.Ankle.Med			L.Midfoot.Sup			L.Heel			origin1 front left			origin2 front right			origin 3 back right			origin 4 back leftt			
		X1	Y1	Z1	X2	Y2	Z2	X3	Y3	Z3	X4	Y4	Z4	X5	Y5	Z5	X6	Y6	Z6	X7	Y7	Z7	X8	Y8	Z8	X9	Y9	Z9	X10	Y10	Z10	X11	Y11	Z11	X12	Y12	Z12	X13	Y13	Z13	X14	Y14	Z14	X15	Y15	Z15	X16	Y16	Z16	X17	Y17	Z17	X18	Y18	Z18	X19	Y19	Z19	X20	Y20	Z20	X21	Y21	Z21	X22	Y22	Z22	X23	Y23	Z23	X24	Y24	Z24	X25	Y25	Z25	X26	Y26	Z26	X27	Y27	Z27	X28	Y28	Z28	X29	Y29	Z29	X30	Y30	Z30	X31	Y31	Z31	X32	Y32	Z32	X33	Y33	Z33	X34	Y34	Z34	X35	Y35	Z35	X36	Y36	Z36	X37	Y37	Z37	X38	Y38	Z38	X39	Y39	Z39	X40	Y40	Z40	X41	Y41	Z41	X42	Y42	Z42	X43	Y43	Z43	

278	5.540	-434.26572	109.82204	1766.89087	-527.24487	-75.43784	1467.68469	-541.43439	284.27933	1472.77246	-533.14502	108.09993	1266.72266	-691.01563	-2.53120	1035.74402	-691.45459	240.04605	1053.62756	-885.51129	98.54767	1084.38843	-766.59583	-67.18575	874.38788	-681.47540	-6.46305	806.92444	-771.18585	-62.89236	756.32281	-770.49640	-36.72924	613.55762	-753.01538	71.65537	568.80029	-772.32526	-35.45927	566.71844	-717.09076	12.96837	524.42572	-803.08862	-50.44335	481.85019	-763.09290	-23.18844	204.93515	-647.87347	-68.31457	159.99393	-606.55719	-74.60661	155.46428	-550.40369	-23.61765	162.63545	-601.28326	27.26656	169.50304	-675.98419	51.62741	162.14468	-724.28375	66.20177	219.86385	-795.01080	35.33038	173.02238	-780.71973	287.41672	875.71539	-677.86255	223.96555	797.75928	-772.33026	277.27643	741.53979	-795.42480	260.10175	635.74475	-750.14539	147.78928	573.63739	-782.17218	252.90594	572.00134	-725.58514	208.92685	537.41156	-810.74310	265.34470	494.35660	-768.31720	231.98399	203.49677	-652.66376	292.37750	155.70430	-615.66321	298.30588	157.64088	-554.87213	242.59677	166.27980	-591.00446	209.93544	175.27203	-718.15094	155.20793	221.16727	-676.58649	169.56116	162.45177	-797.06567	183.46947	182.69298	-528.10046	303.88284	146.51205	-517.86890	-72.90279	143.13655	-875.88757	-78.61966	141.19556	-882.65436	296.06464	144.65750	
279	5.560	-445.30423	109.90418	1773.53796	-533.67993	-75.10327	1472.75989	-547.94208	284.73306	1477.66650	-535.51917	108.42094	1271.65540	-689.17090	-2.41398	1036.95154	-689.88123	240.49625	1054.77588	-884.00739	98.78397	1083.44556	-764.27197	-67.16812	874.69220	-679.39539	-6.43370	807.05371	-769.48083	-62.53373	756.44391	-769.16101	-36.59771	613.64703	-751.69427	71.74370	568.93390	-771.17175	-35.31631	566.80066	-716.06519	13.03755	524.20996	-802.19501	-50.17258	482.02444	-763.05695	-23.25816	204.99448	-647.94489	-68.35788	159.95880	-606.54468	-74.67342	155.44252	-550.41132	-23.71901	162.70155	-601.29260	27.20937	169.56529	-675.97363	51.58545	162.23415	-724.13605	66.17873	219.80356	-795.02466	35.29672	173.02367	-778.44208	287.68488	875.85474	-675.77332	224.18089	797.89673	-770.45227	277.23175	741.83423	-793.98657	259.99957	636.02576	-748.87854	147.83667	573.87451	-780.96594	252.88512	572.16425	-724.53296	208.87839	537.33862	-809.79883	265.27112	494.65680	-768.26440	232.01523	203.58560	-652.70544	292.37952	155.68143	-615.69214	298.32709	157.66960	-554.91034	242.72705	166.32358	-591.13788	210.05409	175.32013	-718.03058	155.21040	221.18611	-676.55615	169.53433	162.44235	-797.13892	183.34102	182.78650	-528.08850	303.87946	146.49672	-517.86725	-72.91487	143.14348	-875.89056	-78.66889	141.21973	-882.64691	296.04630	144.66261	
280	5.580	-456.18539	109.97768	1779.89148	-540.09607	-74.78865	1477.58887	-554.41498	285.15662	1482.35425	-537.91589	108.69193	1276.49072	-687.25232	-2.24055	1038.14465	-688.15570	240.91565	1055.83179	-882.46716	99.13526	1082.49695	-761.82837	-67.09285	875.00677	-677.22260	-6.39050	807.19781	-767.66626	-62.16888	756.58228	-767.71729	-36.46529	613.76855	-750.28906	71.83273	569.04498	-769.89032	-35.19743	566.97070	-714.90692	13.12029	524.04712	-801.25079	-49.81971	482.24121	-762.98425	-23.29160	205.06342	-648.00665	-68.41026	159.96854	-606.51129	-74.71882	155.45883	-550.40588	-23.79128	162.72440	-601.29126	27.20314	169.62102	-675.97778	51.54765	162.25850	-724.03033	66.18597	219.72646	-795.01532	35.28827	173.07025	-775.98218	288.08728	876.05042	-673.58093	224.36478	798.00299	-768.37555	277.37048	742.19879	-792.50110	259.90079	636.32196	-747.58301	147.88170	574.08716	-779.76642	252.84634	572.41040	-723.44012	208.83113	537.31354	-808.88403	265.16425	494.92697	-768.26050	232.00865	203.70499	-652.76282	292.37628	155.66499	-615.71222	298.34409	157.69812	-554.96149	242.87897	166.37619	-591.28876	210.17995	175.36005	-717.88904	155.20630	221.14029	-676.53967	169.51328	162.40547	-797.16412	183.26970	182.80394	-528.08240	303.90445	146.49419	-517.86499	-72.92968	143.14549	-875.89929	-78.71674	141.24915	-882.62042	296.03162	144.66653	
281	5.600	-466.91479	110.08843	1785.94739	-546.50824	-74.52495	1482.18787	-560.86646	285.52408	1486.81470	-540.36865	108.93893	1281.25684	-685.27789	-2.00923	1039.40039	-686.29382	241.29042	1056.79529	-880.99445	99.62547	1081.55322	-759.34845	-66.92612	875.31177	-674.96027	-6.31424	807.34161	-765.77710	-61.82971	756.79114	-766.17535	-36.31416	613.94336	-748.76849	71.95592	569.14832	-768.49750	-35.05408	567.20856	-713.61633	13.22521	523.95581	-800.27771	-49.43300	482.54059	-762.88605	-23.26314	205.13089	-648.05573	-68.44958	160.02858	-606.50256	-74.74454	155.49648	-550.36798	-23.85010	162.72112	-601.28735	27.22643	169.66602	-675.98486	51.53013	162.21133	-723.95618	66.22717	219.63400	-794.97430	35.32643	173.14284	-773.38947	288.57822	876.24597	-671.29718	224.54230	798.06738	-766.15479	277.67413	742.58813	-790.91547	259.82281	636.63318	-746.22821	147.94046	574.26331	-778.54938	252.81349	572.67102	-722.28168	208.81464	537.32904	-807.96411	265.05695	495.14468	-768.27490	231.97253	203.81953	-652.81854	292.36252	155.65962	-615.72894	298.34747	157.70680	-555.01764	242.98895	166.42700	-591.41052	210.28722	175.38023	-717.72870	155.16080	221.02638	-676.55286	169.49916	162.33740	-797.13861	183.23950	182.77467	-528.08453	303.92804	146.50494	-517.86444	-72.93618	143.13631	-875.90570	-78.72361	141.26564	-882.56647	296.05353	144.66515	
